<svg width="146" height="66" viewBox="0 0 146 66" fill="none" xmlns="http://www.w3.org/2000/svg">
<g clip-path="url(#clip0_892_36)">
<mask id="mask0_892_36" style="mask-type:luminance" maskUnits="userSpaceOnUse" x="0" y="6" width="146" height="48">
<path d="M146 6.62158H0V53.384H146V6.62158Z" fill="white"/>
</mask>
<g mask="url(#mask0_892_36)">
<path d="M2.38769 36.1187C1.73528 35.3288 1.55405 34.2094 1.55405 32.8778V26.4819C1.55405 25.8183 1.55405 25.4166 1.47703 25.1684C1.40001 24.9246 1.28221 24.8208 0.983192 24.708L-0.0135498 24.3965V23.8639H4.90673V24.3965L3.91452 24.7034C3.61097 24.8208 3.49317 24.9246 3.41615 25.1684C3.34366 25.4166 3.33913 25.8183 3.33913 26.4819V32.2143C3.35725 34.6833 3.96436 36.2135 6.81866 36.227C7.79275 36.227 8.46329 36.0645 8.90729 35.4823C9.35129 34.9 9.57782 33.8573 9.57782 32.0789V26.4819C9.57782 25.7326 9.57782 25.3173 9.50533 25.0871C9.43284 24.8659 9.32411 24.8073 9.01149 24.7034L8.01475 24.392V23.8594H12.7176V24.392L11.7208 24.7034C11.4173 24.8073 11.304 24.8795 11.2315 25.0781C11.159 25.2767 11.15 25.6288 11.15 26.2426C11.15 26.3149 11.15 26.3961 11.15 26.4773V31.5869C11.15 33.8483 10.7558 35.2882 9.89044 36.1729C9.02508 37.0531 7.71573 37.3464 5.93972 37.3464C4.14558 37.3464 3.0401 36.9086 2.38769 36.1187Z" fill="#08713D"/>
</g>
<path d="M84.3652 36.981H88.8233V36.6289L88.0531 36.3897C87.4596 36.2001 87.4777 36.0376 87.4777 35.0807V33.6092C87.4777 32.6162 87.591 32.5711 88.0214 31.709L89.5935 28.8337C90.477 27.2178 90.4906 27.0598 91.2608 26.7393L91.5326 26.6265V26.2744H88.1301V26.6265L88.8686 26.9289C89.0951 27.0237 89.2718 27.0733 89.2718 27.281C89.2718 27.5383 89.0453 27.9987 88.5515 29.0368L87.3463 31.56C87.2648 31.736 87.2195 31.7992 87.1198 31.7992C87.0201 31.7992 86.925 31.6864 86.8162 31.4472L85.0991 27.8362C85.004 27.6466 84.8907 27.4706 84.8907 27.2629C84.8907 27.0733 84.9858 27.0237 85.371 26.8657L85.9962 26.6265V26.2744H81.7782V26.6265L82.1633 26.8025C82.8519 27.123 83.0603 27.7143 83.9936 29.5017L85.2124 31.8669C85.5341 32.5846 85.6926 32.8735 85.6926 33.6544V35.0762C85.6926 36.0196 85.6609 36.2272 85.149 36.3852L84.3652 36.6244V36.9765V36.981ZM74.2754 36.981H78.8785V36.6289L78.0947 36.3897C77.4514 36.2001 77.4695 36.0241 77.4695 34.9182V27.6015C77.4695 27.123 77.4695 26.9966 78.1582 26.9966C79.395 26.9966 79.6352 27.123 80.0339 27.8452L80.6092 28.9014H81.1393V26.4098L80.9944 26.2834H72.1551L72.0101 26.4098V28.9014H72.5402L73.1337 27.8452C73.5188 27.1726 73.7589 26.9966 74.9958 26.9966C75.6844 26.9966 75.6844 27.123 75.6844 27.6015V34.9182C75.6844 36.0196 75.6844 36.1956 75.0411 36.3897L74.2709 36.6289V36.981H74.2754ZM67.1895 36.981H71.4709V36.6289L70.7642 36.3897C70.2024 36.2137 70.2205 35.9925 70.2205 35.0807V28.0167C70.2205 27.2358 70.2205 27.0598 70.7642 26.8838L71.4709 26.6265V26.2744H67.1895V26.6265L67.8963 26.8838C68.4263 27.0417 68.4399 27.2494 68.4399 28.0167V35.0807C68.4399 35.9745 68.4399 36.2137 67.8963 36.3897L67.1895 36.6289V36.981ZM65.5992 29.091L66.1112 27.8587C66.161 27.7459 66.2245 27.5879 66.2245 27.4435C66.2245 26.6626 65.0691 26.0713 63.207 26.0713C61.3449 26.0713 59.5961 27.2674 59.5961 29.2851C59.5961 32.9593 64.8879 31.2982 64.8879 34.4804C64.8879 35.5186 64.2808 36.3671 63.2342 36.3671C61.1184 36.3671 60.6518 34.5932 60.4615 33.7311H60.1715L59.5282 35.1349C59.4466 35.3109 59.4013 35.487 59.4013 35.663C59.4013 36.5748 61.132 37.1977 62.4323 37.1977C64.8381 37.1977 66.5869 35.9022 66.5869 33.6679C66.5869 29.7996 61.1003 31.2531 61.1003 28.4591C61.1003 27.5789 61.7754 26.9108 62.686 26.9108C64.4983 26.9108 65.0601 28.283 65.3002 29.1H65.5902L65.5992 29.091ZM52.1931 27.6015C52.1931 27.1365 52.1931 26.9966 53.2034 26.9966C54.6623 26.9966 55.4506 27.6827 55.4506 29.249C55.4506 30.8152 54.3768 31.2486 53.0448 31.2486C52.261 31.2486 52.1931 31.2486 52.1931 30.7385V27.606V27.6015ZM49.1621 36.981H53.3665V36.6289L52.7549 36.3897C52.1795 36.164 52.1931 36.006 52.1931 34.9182V32.4582C52.1931 32.043 52.1931 31.9617 52.5918 31.9617H52.85C53.2668 31.9617 53.4118 32.0565 53.7969 32.6659L56.0577 36.3581C56.2978 36.7598 56.6693 36.981 57.0861 36.981H58.9482V36.6289C58.3366 36.2317 57.8881 35.7172 57.1179 34.5842L55.3056 31.9482C55.2241 31.8353 55.1289 31.7225 55.1289 31.5961C55.1289 31.1809 57.3444 31.226 57.3444 28.6712C57.3444 26.5949 55.9988 26.2744 54.2001 26.2744H49.1621V26.6265L49.8688 26.8838C50.3989 27.0417 50.4125 27.2494 50.4125 27.9851V34.9182C50.4125 35.9248 50.3944 36.2137 49.8688 36.3897L49.1621 36.6289V36.981ZM39.8289 36.981H48.1834L48.3103 36.8546V33.9929H47.7983L47.3181 34.9047C46.7427 35.9745 46.5026 36.2633 44.8308 36.2633C42.8599 36.2633 42.8599 35.9745 42.8599 35.2071V32.3454C42.8599 31.7541 42.8781 31.6728 43.4852 31.6728H44.6405C45.2838 31.6728 45.2838 31.7676 45.6191 32.4537L45.8773 33.027H46.2307V29.6056H45.8773L45.6191 30.1969C45.3155 30.8378 45.2838 30.9461 44.6586 30.9461H43.535C42.9098 30.9461 42.8599 30.9281 42.8599 30.3864V27.782C42.8599 27.0643 42.9098 26.9831 44.5589 26.9831C46.2081 26.9831 46.3213 27.0959 46.9013 28.1025L47.3362 28.8834H47.8482V26.3737L47.7213 26.2609H39.8289V26.6129L40.5176 26.8522C41.0794 27.0598 41.0794 27.2178 41.0794 28.0348V35.0672C41.0794 35.979 41.0794 36.1866 40.5357 36.3762L39.8289 36.6154V36.9675V36.981ZM33.1372 36.981H34.4828L34.596 36.8546C34.7546 36.3581 35.7332 33.677 36.3131 32.1107L37.5817 28.8021C37.8853 28.0032 38.0937 27.141 38.5921 26.9154L39.2354 26.6265V26.2744H35.706V26.6265L36.508 26.947C36.8115 27.0733 36.9565 27.1546 36.9565 27.4119C36.9565 27.6827 36.073 30.4812 35.4161 32.3499L34.5507 34.828C34.4873 35.0205 34.4239 35.1168 34.3604 35.1168C34.2653 35.1168 34.2019 34.9273 34.1203 34.6519L32.2265 28.5809C32.0362 27.9716 31.8912 27.448 31.8912 27.3351C31.8912 27.1275 31.9864 27.0643 32.3715 26.9018L33.0919 26.631V26.2789H28.8421V26.631L29.3405 26.8702C29.9657 27.1726 30.0473 27.5563 30.4958 28.9149L32.0045 33.4693C32.2763 34.2999 32.6297 35.5637 33.0148 36.8546L33.1417 36.981H33.1372ZM23.9807 36.981H28.2622V36.6289L27.5554 36.3897C26.9936 36.2137 27.0117 35.9925 27.0117 35.0807V28.0167C27.0117 27.2358 27.0117 27.0598 27.5554 26.8838L28.2622 26.6265V26.2744H23.9807V26.6265L24.6875 26.8838C25.2176 27.0417 25.2312 27.2494 25.2312 28.0167V35.0807C25.2312 35.9745 25.2312 36.2137 24.6875 36.3897L23.9807 36.6289V36.981ZM12.3551 36.981H16.0929V36.6289L15.146 36.2949C14.4709 36.0738 14.4709 35.83 14.4709 35.0672V29.3483C14.4709 29.1226 14.4709 28.9646 14.6159 28.9646C14.6974 28.9646 14.7926 29.109 15.001 29.3799L18.7524 34.3811C19.6041 35.514 20.4378 36.6831 20.5828 36.8591L20.7594 36.9855H21.6565L21.7698 36.8591C21.7698 36.5251 21.7562 35.5502 21.7562 34.5887V28.2921C21.7562 27.2358 21.883 27.0779 22.5717 26.807L23.0384 26.631V26.2789H19.364V26.631L20.2792 26.9831C20.9044 27.2403 20.9226 27.3803 20.9226 28.116V33.6589C20.9226 33.9478 20.9226 34.1058 20.7957 34.1058C20.7323 34.1058 20.6688 34.0245 20.5374 33.8485L17.1712 29.2941C16.2741 28.0799 15.4088 26.8161 15.0871 26.3873L14.9104 26.2744H12.4548V26.6265L13.0981 27.0598C13.4968 27.3306 13.6418 27.5879 13.6418 28.098V34.7783C13.6418 35.7036 13.6418 36.1189 13.0664 36.3446L12.3596 36.6335V36.9855L12.3551 36.981Z" fill="#08713D"/>
<path d="M20.995 44.5099H23.5366V43.8283H21.8331V42.5193H23.3011V41.8378H21.8331V40.6191H23.3101L23.5321 39.9375H20.9995V44.5054L20.995 44.5099ZM15.7666 44.5099H16.6002V42.5329H18.8293V44.5099H19.672V39.942H18.8293V41.8287H16.6002V39.942H15.7666V44.5099ZM12.9168 44.5099H13.7505V40.6191H14.9828L15.2003 39.9375H11.5803V40.6191H12.9168V44.5099ZM7.05416 44.5099H7.8878V42.5193H9.3512V41.8378H7.8878V40.6191H9.37838L9.59585 39.9375H7.05416V44.5054V44.5099ZM3.82381 43.878C2.97658 43.878 2.40572 43.2731 2.40572 42.2395C2.40572 41.2058 2.97658 40.5965 3.82381 40.5965C4.67104 40.5965 5.2419 41.2284 5.2419 42.2395C5.2419 43.2506 4.66651 43.878 3.82381 43.878ZM3.82381 44.5821C5.16035 44.5821 6.13444 43.6478 6.13444 42.244C6.13444 40.8402 5.183 39.9014 3.82381 39.9014C2.46462 39.9014 1.51318 40.8583 1.51318 42.244C1.51318 43.6297 2.47368 44.5821 3.82381 44.5821Z" fill="#08713D"/>
<path d="M75.2858 6.62606C66.5144 6.7028 58.767 10.6433 52.252 18.3392C52.1976 18.4024 52.2021 18.4972 52.2565 18.5559C52.3154 18.6146 52.406 18.6236 52.474 18.5739C60.8511 12.3585 68.6891 9.68638 77.1433 10.1558C87.3373 10.7245 98.1564 15.9605 110.222 26.1706C110.285 26.2247 110.385 26.2202 110.444 26.1616C110.502 26.1029 110.507 26.0036 110.453 25.9404C99.4522 13.3877 86.9612 6.52676 75.2858 6.62606Z" fill="#99CA3E"/>
<path d="M69.6904 14.7823C69.6451 14.7913 69.6043 14.8184 69.5772 14.8636L69.5364 14.9358C69.5092 14.9854 69.5092 15.0441 69.5364 15.0938C69.5636 15.1434 69.6134 15.175 69.6723 15.1795C79.6896 15.6128 85.7923 18.6957 90.4453 21.6522C92.8012 23.1508 98.1791 26.4729 102.778 29.1631C107.666 32.0339 112.772 33.8303 115.921 34.557C119.632 35.3966 123.302 35.3605 127.134 34.4487C130.039 36.1955 133.464 36.0872 136.789 34.1328C142.235 30.9325 146.272 23.6067 145.982 17.459C145.982 17.3777 145.914 17.31 145.832 17.3055C145.751 17.301 145.678 17.3552 145.66 17.4364C144.537 23.1463 139.15 24.5817 133.446 26.1028C129.354 27.1906 125.123 28.319 122.654 31.1853C122.617 31.2259 122.604 31.2846 122.622 31.3387C122.636 31.3929 122.681 31.4335 122.731 31.4471C126.382 32.4988 134.044 30.603 139.548 27.3576C138.769 28.2739 137.319 29.619 134.941 30.5533C133.287 31.2801 127.705 33.0585 121.761 32.5936C114.059 31.9887 103.226 25.2948 96.0542 20.8668C93.4401 19.2509 91.1838 17.8607 89.6388 17.0934C81.4701 13.0671 75.0592 13.7938 69.6904 14.7868" fill="#99CA3E"/>
<path d="M133.677 50.6804H138.135V50.3283L137.365 50.0891C136.771 49.8995 136.789 49.737 136.789 48.7801V47.3086C136.789 46.3156 136.903 46.2704 137.333 45.4083L138.905 42.533C139.789 40.9171 139.802 40.7591 140.572 40.4387L140.844 40.3258V39.9737H137.446V40.3258L138.185 40.6282C138.411 40.723 138.588 40.7727 138.588 40.9803C138.588 41.2376 138.361 41.698 137.868 42.7362L136.667 45.2593C136.585 45.4354 136.54 45.4986 136.445 45.4986C136.35 45.4986 136.25 45.3857 136.141 45.1465L134.424 41.5355C134.329 41.3459 134.216 41.1699 134.216 40.9623C134.216 40.7727 134.311 40.723 134.696 40.565L135.321 40.3258V39.9737H131.103V40.3258L131.488 40.5019C132.177 40.8223 132.385 41.4136 133.319 43.2011L134.538 45.5663C134.859 46.284 135.018 46.5728 135.018 47.3537V48.7756C135.018 49.7189 134.986 49.9266 134.474 50.0845L133.69 50.3238V50.6758L133.677 50.6804ZM122.468 50.6804H130.822L130.949 50.554V47.6923H130.437L129.957 48.604C129.382 49.6738 129.137 49.9627 127.47 49.9627C125.499 49.9627 125.499 49.6738 125.499 48.9065V46.0447C125.499 45.4534 125.512 45.3722 126.124 45.3722H127.279C127.923 45.3722 127.923 45.467 128.258 46.1531L128.516 46.7263H128.87V43.3049H128.516L128.258 43.8962C127.954 44.5371 127.923 44.6455 127.298 44.6455H126.174C125.549 44.6455 125.499 44.6274 125.499 44.0858V41.4813C125.499 40.7637 125.549 40.6824 127.198 40.6824C128.847 40.6824 128.96 40.7952 129.54 41.8018L129.971 42.5827H130.483V40.073L130.356 39.9602H122.463V40.3123L123.152 40.5515C123.714 40.7591 123.714 40.9171 123.714 41.7341V48.7665C123.714 49.6783 123.714 49.8859 123.17 50.0755L122.463 50.3147V50.6668L122.468 50.6804ZM113.651 50.6804H121.766L121.893 50.554V47.6607H121.381L121.14 48.1256C120.465 49.4526 120.452 49.9627 118.476 49.9627C116.682 49.9627 116.682 49.5474 116.682 48.5228V41.7161C116.682 40.8991 116.651 40.7591 117.307 40.5831L118.141 40.3258V39.9737H113.651V40.3258L114.358 40.5831C114.902 40.7591 114.902 40.9487 114.902 41.7161V48.6176C114.902 49.6241 114.902 49.913 114.358 50.0891L113.651 50.3283V50.6804ZM104.912 50.6804H113.026L113.153 50.554V47.6607H112.641L112.401 48.1256C111.726 49.4526 111.712 49.9627 109.737 49.9627C107.943 49.9627 107.943 49.5474 107.943 48.5228V41.7161C107.943 40.8991 107.911 40.7591 108.568 40.5831L109.402 40.3258V39.9737H104.912V40.3258L105.618 40.5831C106.162 40.7591 106.162 40.9487 106.162 41.7161V48.6176C106.162 49.6241 106.162 49.913 105.618 50.0891L104.912 50.3283V50.6804ZM98.3603 42.1449C98.4238 41.9869 98.4736 41.8876 98.5551 41.8876C98.6503 41.8876 98.682 42.0004 98.7636 42.2532L99.7422 45.2232C99.7603 45.3045 99.8056 45.3812 99.8056 45.4625C99.8056 45.6069 99.7422 45.6881 99.502 45.6881H97.6082C97.2549 45.6881 97.1914 45.6701 97.1914 45.4625C97.1914 45.3496 97.2413 45.2548 97.2866 45.16L98.3603 42.1403V42.1449ZM93.4355 50.6804H97.0918V50.3283L96.2898 50.0259C95.9863 49.9311 95.8096 49.8363 95.8096 49.579C95.8096 49.2901 95.9364 49.0193 96.0361 48.7169L96.5481 47.1687C96.8063 46.4194 96.9015 46.4194 97.5765 46.4194H99.6153C100.082 46.4194 100.191 46.4826 100.354 46.9294L101.074 49.1502C101.124 49.3082 101.219 49.5023 101.219 49.6783C101.219 49.8679 101.074 49.9491 100.852 50.0304L100 50.3328V50.6849H104.3V50.3328L103.897 50.1748C103.095 49.8543 103.031 49.3939 102.533 47.9856L100.254 41.5626C100.028 40.9397 99.8056 40.3168 99.7241 40.0595L99.6108 39.9783H98.5053L98.4102 40.0595C98.2969 40.3484 98.0251 41.0661 97.7668 41.689L95.2161 47.9676C94.7494 49.1186 94.6225 49.8227 93.8841 50.1568L93.4355 50.3328V50.6849V50.6804ZM89.7929 50.6804H91.1385L91.2518 50.554C91.4103 50.0575 92.3889 47.3763 92.9689 45.81L94.2374 42.5014C94.541 41.7025 94.7494 40.8404 95.2478 40.6147L95.8911 40.3258V39.9737H92.3618V40.3258L93.1637 40.6463C93.4672 40.7727 93.6122 40.8539 93.6122 41.1112C93.6122 41.382 92.7287 44.1806 92.0718 46.0492L91.2064 48.5273C91.143 48.7199 91.0796 48.8162 91.0162 48.8162C90.921 48.8162 90.8576 48.6266 90.776 48.3513L88.8822 42.2803C88.6919 41.6709 88.547 41.1473 88.547 41.0345C88.547 40.8268 88.6421 40.7637 89.0272 40.6057L89.7476 40.3348V39.9828H85.4978V40.3348L85.9962 40.5741C86.6214 40.8765 86.703 41.2602 87.1515 42.6188L88.6602 47.1732C88.9321 48.0037 89.2854 49.2676 89.6706 50.5585L89.7974 50.6849L89.7929 50.6804ZM76.1149 41.3008C76.1149 40.8359 76.1149 40.6959 77.1252 40.6959C78.5841 40.6959 79.3724 41.382 79.3724 42.9483C79.3724 44.5146 78.2986 44.9434 76.9666 44.9434C76.1828 44.9434 76.1149 44.9434 76.1149 44.4333V41.3008ZM73.0839 50.6804H77.2838V50.3283L76.6721 50.0891C76.0967 49.8634 76.1103 49.7054 76.1103 48.6176V46.1576C76.1103 45.7423 76.1103 45.6611 76.5136 45.6611H76.7718C77.1886 45.6611 77.3336 45.7559 77.7187 46.3652L79.9795 50.0575C80.2196 50.4592 80.5911 50.6804 81.008 50.6804H82.8701V50.3283C82.263 49.9311 81.8099 49.4165 81.0397 48.2836L79.2274 45.6475C79.1459 45.5347 79.0507 45.4218 79.0507 45.2955C79.0507 44.8802 81.2662 44.9253 81.2662 42.3705C81.2662 40.2942 79.9206 39.9737 78.1219 39.9737H73.0839V40.3258L73.7906 40.5831C74.3207 40.7411 74.3343 40.9487 74.3343 41.6845V48.6176C74.3343 49.6241 74.3162 49.913 73.7906 50.0891L73.0839 50.3283V50.6804ZM63.7462 50.6804H72.1007L72.2276 50.554V47.6923H71.7156L71.2354 48.604C70.66 49.6738 70.4153 49.9627 68.748 49.9627C66.7772 49.9627 66.7772 49.6738 66.7772 48.9065V46.0447C66.7772 45.4534 66.7908 45.3722 67.4024 45.3722H68.5578C69.2011 45.3722 69.2011 45.467 69.5364 46.1531L69.7946 46.7263H70.148V43.3049H69.7946L69.5364 43.8962C69.2328 44.5371 69.2011 44.6455 68.5759 44.6455H67.4523C66.827 44.6455 66.7772 44.6274 66.7772 44.0858V41.4813C66.7772 40.7637 66.827 40.6824 68.4762 40.6824C70.1254 40.6824 70.2386 40.7952 70.8185 41.8018L71.249 42.5827H71.7609V40.073L71.6341 39.9602H63.7417V40.3123L64.4303 40.5515C64.9921 40.7591 64.9921 40.9171 64.9921 41.7341V48.7665C64.9921 49.6783 64.9921 49.8859 64.4485 50.0755L63.7417 50.3147V50.6668L63.7462 50.6804ZM62.2873 42.7858L62.7993 41.5536C62.8491 41.4407 62.9126 41.2827 62.9126 41.1383C62.9126 40.3574 61.7573 39.7661 59.8952 39.7661C58.0331 39.7661 56.2842 40.9623 56.2842 42.9799C56.2842 46.6541 61.576 44.993 61.576 48.1707C61.576 49.2089 60.9644 50.0575 59.9223 50.0575C57.8065 50.0575 57.3399 48.2836 57.1496 47.4214H56.8596L56.2163 48.8297C56.1347 49.0058 56.0894 49.1818 56.0894 49.3578C56.0894 50.2696 57.8201 50.8925 59.1204 50.8925C61.5262 50.8925 63.275 49.5971 63.275 47.3627C63.275 43.4945 57.7884 44.9479 57.7884 42.1539C57.7884 41.2737 58.4635 40.6057 59.3741 40.6057C61.1864 40.6057 61.7482 41.9778 61.9883 42.7948H62.2783L62.2873 42.7858ZM49.8915 42.1449C49.9549 41.9869 50.0048 41.8876 50.0863 41.8876C50.1815 41.8876 50.2132 42.0004 50.2947 42.2532L51.2733 45.2232C51.2915 45.3045 51.3368 45.3812 51.3368 45.4625C51.3368 45.6069 51.2733 45.6881 51.0332 45.6881H49.1394C48.786 45.6881 48.7226 45.6701 48.7226 45.4625C48.7226 45.3496 48.7724 45.2548 48.8177 45.16L49.8915 42.1403V42.1449ZM44.9667 50.6804H48.6229V50.3283L47.821 50.0259C47.5174 49.9311 47.3407 49.8363 47.3407 49.579C47.3407 49.2901 47.4676 49.0193 47.5673 48.7169L48.0792 47.1687C48.3375 46.4194 48.4326 46.4194 49.1077 46.4194H51.1465C51.6131 46.4194 51.7219 46.4826 51.885 46.9294L52.6054 49.1502C52.6552 49.3082 52.7503 49.5023 52.7503 49.6783C52.7503 49.8679 52.6054 49.9491 52.3834 50.0304L51.5316 50.3328V50.6849H55.8312V50.3328L55.4325 50.1748C54.6306 49.8543 54.5671 49.3939 54.0688 47.9856L51.7898 41.5626C51.5633 40.9397 51.3413 40.3168 51.2598 40.0595L51.1465 39.9783H50.041L49.9459 40.0595C49.8326 40.3484 49.5608 41.0661 49.3025 41.689L46.7518 47.9676C46.2851 49.1186 46.1582 49.8227 45.4198 50.1568L44.9712 50.3328V50.6849L44.9667 50.6804ZM39.5299 41.3008C39.5299 40.8359 39.5299 40.6959 40.5403 40.6959C41.9991 40.6959 42.7874 41.382 42.7874 42.9483C42.7874 44.5146 41.7137 44.9434 40.3817 44.9434C39.5979 44.9434 39.5299 44.9434 39.5299 44.4333V41.3008ZM36.4989 50.6804H40.6988V50.3283L40.0872 50.0891C39.5118 49.8634 39.5254 49.7054 39.5254 48.6176V46.1576C39.5254 45.7423 39.5254 45.6611 39.9241 45.6611H40.1823C40.5991 45.6611 40.7441 45.7559 41.1292 46.3652L43.39 50.0575C43.6301 50.4592 44.0017 50.6804 44.4185 50.6804H46.2806V50.3283C45.1978 49.8724 45.0029 49.4165 44.2327 48.2836L42.6379 45.6475C42.5564 45.5347 42.4612 45.4218 42.4612 45.2955C42.4612 44.8802 44.6767 44.9253 44.6767 42.3705C44.6767 40.2942 43.3311 39.9737 41.5325 39.9737H36.4944V40.3258L37.2012 40.5831C37.7312 40.7411 37.7448 40.9487 37.7448 41.6845V48.6176C37.7448 49.6241 37.7312 49.913 37.2012 50.0891L36.4944 50.3283V50.6804H36.4989Z" fill="#99CA3E"/>
<path d="M26.0829 53.3883H26.0013V52.8557L26.9936 52.5172C27.3107 52.4134 27.433 52.3547 27.51 52.1335C27.5871 51.9033 27.5961 51.4835 27.5961 50.7117V42.6005C27.5961 41.8873 27.5961 41.4721 27.5191 41.2283C27.4421 40.9891 27.3198 40.9033 26.9981 40.7905L26.0059 40.4745V39.9419H35.4749L35.6833 40.1224V43.2144H35.0173L34.4963 42.262C34.1565 41.6526 34.0025 41.3186 33.6445 41.1335C33.2821 40.9439 32.675 40.8898 31.42 40.8943C30.3779 40.8943 29.8524 40.9169 29.6259 41.0387C29.4129 41.1426 29.4084 41.3412 29.4084 41.8061V45.5931C29.4084 45.882 29.4356 45.9903 29.5081 46.0264C29.5851 46.0806 29.798 46.0896 30.1877 46.0851H31.7009C32.53 46.067 32.5662 46.0174 32.9604 45.1237L33.2594 44.4195H33.7895V48.685H33.2594L32.9015 47.8861C32.4847 47.0149 32.5028 47.0601 31.6193 47.042H30.165C29.9068 47.042 29.7029 47.042 29.5851 47.0962C29.4718 47.1503 29.4175 47.2181 29.4084 47.4392V50.7117C29.4084 51.4655 29.4084 51.8762 29.4718 52.0974C29.5352 52.3141 29.6123 52.3547 29.875 52.4405L31.1028 52.8557V53.3883H26.0829Z" fill="#99CA3E"/>
<path d="M135.91 61.4365H138.271C138.212 61.6216 138.162 61.7886 138.094 61.9511C138.076 61.9872 137.994 62.0188 137.94 62.0188C137.564 62.0233 137.183 62.0188 136.807 62.0188C136.748 62.0188 136.69 62.0188 136.626 62.0188V63.3278H138.058V63.9236H136.631V65.3319H138.284V65.9187H135.915V61.441L135.91 61.4365Z" fill="#08713D"/>
<path d="M138.28 65.919H135.724V65.8061C135.724 64.3572 135.724 62.9083 135.724 61.4549C135.724 61.3646 135.743 61.333 135.842 61.333C136.612 61.333 137.383 61.333 138.157 61.333H138.275C138.198 61.5677 138.126 61.7889 138.053 62.0146H136.581V63.2288H138.035V63.9194H136.581V65.2284H138.28V65.9145V65.919Z" fill="#08713D"/>
<path d="M111.341 64.5377V64.1269C111.341 63.2377 111.341 62.3485 111.341 61.4638C111.341 61.3645 111.368 61.342 111.467 61.342C111.703 61.3465 111.939 61.342 112.183 61.342V65.9189C112.02 65.9189 111.848 65.9054 111.685 65.9189C111.49 65.9415 111.377 65.8647 111.259 65.7113C110.548 64.7814 109.823 63.8561 109.107 62.9308C109.03 62.8315 108.962 62.7322 108.876 62.6103V65.9099H108.038V65.8015C108.038 64.3526 108.038 62.8992 108.038 61.4503C108.038 61.36 108.06 61.3284 108.156 61.3329C108.364 61.342 108.577 61.3375 108.785 61.3329C108.849 61.3329 108.889 61.351 108.93 61.4006C109.728 62.4343 110.53 63.4679 111.331 64.5016C111.336 64.5106 111.345 64.5151 111.35 64.5287L111.341 64.5377Z" fill="#08713D"/>
<path d="M126.74 61.3418V65.9187C126.496 65.9187 126.251 65.9187 126.011 65.9187C125.984 65.9187 125.952 65.8871 125.934 65.8646C125.114 64.8084 124.298 63.7476 123.478 62.6869C123.465 62.6688 123.446 62.6553 123.424 62.6282V65.9142H122.586V65.8059C122.586 64.357 122.586 62.9126 122.586 61.4637C122.586 61.3689 122.604 61.3328 122.708 61.3373C122.921 61.3463 123.134 61.3373 123.347 61.3418C123.387 61.3418 123.442 61.3644 123.465 61.396C124.235 62.38 125 63.364 125.762 64.348C125.807 64.4066 125.848 64.4698 125.907 64.5511C125.907 64.4473 125.907 64.366 125.907 64.2848C125.907 63.3369 125.902 62.389 125.897 61.4366C125.897 61.3599 125.916 61.3373 125.993 61.3373C126.237 61.3373 126.486 61.3373 126.74 61.3373V61.3418Z" fill="#08713D"/>
<path d="M80.4008 65.919C80.1561 65.919 79.9251 65.919 79.6895 65.919C79.6578 65.919 79.617 65.8919 79.5943 65.8648C79.0235 65.1336 78.4526 64.4069 77.8818 63.6711C77.628 63.3461 77.3879 63.0166 77.1387 62.6871C77.1251 62.6691 77.107 62.6555 77.0889 62.6285V65.9099H76.2507V65.8016C76.2507 64.3527 76.2507 62.9083 76.2507 61.4594C76.2507 61.3646 76.2734 61.333 76.3731 61.333C76.586 61.342 76.7989 61.333 77.0119 61.3375C77.0527 61.3375 77.107 61.3601 77.1297 61.3917C77.8999 62.3757 78.6656 63.3597 79.4267 64.3437C79.472 64.4024 79.5128 64.4655 79.5762 64.5242C79.5717 64.4024 79.5581 64.2805 79.5581 64.1586C79.5581 63.2468 79.5581 62.3351 79.5581 61.4233C79.5581 61.3962 79.5943 61.342 79.6125 61.342C79.8707 61.3375 80.1335 61.342 80.3963 61.342V65.919H80.4008Z" fill="#08713D"/>
<path d="M51.3865 61.3418V65.9187C51.1419 65.9187 50.8972 65.9187 50.6571 65.9187C50.6299 65.9187 50.5936 65.8826 50.5755 65.8555C50.0092 65.1333 49.4429 64.4112 48.8856 63.689C48.6319 63.3594 48.3872 63.0299 48.138 62.6959C48.1244 62.6734 48.1063 62.6553 48.0791 62.6282V65.9142H47.241V65.8059C47.241 64.357 47.241 62.9126 47.241 61.4637C47.241 61.3689 47.2591 61.3328 47.3633 61.3373C47.5762 61.3463 47.7892 61.3373 48.0021 61.3418C48.0429 61.3418 48.0973 61.3644 48.1199 61.396C48.8901 62.38 49.6558 63.364 50.4169 64.348C50.4623 64.4066 50.503 64.4698 50.5619 64.5511C50.5619 64.4473 50.5619 64.366 50.5619 64.2848C50.5619 63.3369 50.5574 62.389 50.5529 61.4366C50.5529 61.3599 50.5755 61.3373 50.648 61.3373C50.8927 61.3373 51.1419 61.3373 51.3956 61.3373L51.3865 61.3418Z" fill="#08713D"/>
<path d="M75.3174 63.6077C75.3038 64.3931 75.0682 65.034 74.4747 65.508C74.0941 65.8104 73.6501 65.9594 73.1653 65.9864C72.4178 66.0271 71.7608 65.8239 71.2444 65.2597C70.9272 64.9122 70.755 64.4924 70.7007 64.023C70.6418 63.5355 70.678 63.0615 70.8819 62.6102C71.2036 61.8925 71.7654 61.4772 72.5311 61.3418C73.1291 61.2335 73.7045 61.3102 74.2346 61.6216C74.8507 61.9873 75.177 62.547 75.2857 63.2421C75.3083 63.3775 75.3083 63.5174 75.3174 63.6077ZM74.4475 63.6573C74.4475 63.6573 74.4339 63.6573 74.4249 63.6528C74.4158 63.5445 74.4067 63.4407 74.3977 63.3324C74.3977 63.2872 74.3841 63.2376 74.375 63.1924C74.2527 62.565 73.8495 62.073 73.1291 62.0143C72.5401 61.9647 71.9964 62.2129 71.7382 62.7952C71.5615 63.1969 71.5298 63.6167 71.6068 64.0365C71.6431 64.2351 71.7019 64.4382 71.8016 64.6143C72.078 65.1153 72.5356 65.3139 73.0974 65.2778C73.709 65.2417 74.1122 64.9212 74.3071 64.3525C74.3841 64.1313 74.4022 63.8875 74.4475 63.6573Z" fill="#08713D"/>
<path d="M107.118 63.6034C107.104 64.3888 106.873 65.0343 106.271 65.5082C105.877 65.8242 105.414 65.9686 104.907 65.9867C104.178 66.0138 103.539 65.8061 103.04 65.2554C102.723 64.9079 102.556 64.4926 102.501 64.0277C102.442 63.5402 102.479 63.0618 102.682 62.6059C103.004 61.8927 103.566 61.4774 104.336 61.3375C104.934 61.2292 105.51 61.3104 106.035 61.6219C106.651 61.9875 106.977 62.5472 107.082 63.2423C107.1 63.3732 107.104 63.5086 107.113 63.5989L107.118 63.6034ZM106.221 63.5854C106.212 63.5041 106.203 63.3506 106.176 63.1972C106.062 62.5878 105.673 62.0733 104.925 62.0101C104.336 61.9649 103.792 62.2132 103.539 62.7955C103.362 63.1972 103.339 63.6124 103.407 64.0412C103.457 64.3708 103.58 64.6687 103.82 64.9079C104.128 65.2103 104.504 65.3096 104.925 65.278C105.423 65.2419 105.79 65.0027 106.022 64.5648C106.171 64.2805 106.216 63.9735 106.221 63.5854Z" fill="#08713D"/>
<path d="M52.5146 65.9189V65.797C52.5146 64.3526 52.5146 62.9127 52.5146 61.4683C52.5146 61.369 52.5328 61.3374 52.6415 61.3374C53.1127 61.3419 53.5839 61.3329 54.0505 61.3419C54.6033 61.3555 55.1288 61.4638 55.5955 61.7843C56.112 62.1409 56.3702 62.6464 56.4472 63.2557C56.5016 63.6665 56.4654 64.0772 56.3204 64.4654C56.044 65.1921 55.5003 65.6164 54.7618 65.806C54.5172 65.8692 54.2635 65.9008 54.0143 65.9098C53.5205 65.9279 53.0266 65.9143 52.5192 65.9143L52.5146 65.9189ZM53.3619 65.2463C53.6609 65.2373 53.9509 65.2463 54.2363 65.2102C54.8298 65.1335 55.2647 64.8356 55.4596 64.2533C55.5955 63.8425 55.5955 63.4273 55.4686 63.012C55.3418 62.6148 55.079 62.3349 54.6939 62.1724C54.268 61.9964 53.8149 62.0235 53.3619 62.0235V65.2418V65.2463Z" fill="#08713D"/>
<path d="M133.668 63.8156C133.817 64.0187 133.971 64.1993 134.093 64.4024C134.388 64.8854 134.664 65.3774 134.945 65.8694C134.95 65.8784 134.954 65.8919 134.968 65.9145C134.941 65.9145 134.918 65.919 134.895 65.919C134.623 65.919 134.352 65.919 134.084 65.919C134.025 65.919 133.994 65.901 133.967 65.8513C133.726 65.4225 133.482 64.9982 133.237 64.5739C133.21 64.5288 133.174 64.4837 133.151 64.4385C133.002 64.1496 132.757 64.091 132.449 64.1587V65.919H131.602V65.8152C131.602 64.3663 131.602 62.9129 131.602 61.464C131.602 61.3737 131.624 61.3421 131.719 61.3466C132.132 61.3511 132.544 61.3466 132.956 61.3466C133.282 61.3511 133.6 61.4053 133.899 61.5588C134.388 61.8115 134.578 62.29 134.533 62.7775C134.483 63.292 134.193 63.626 133.717 63.8066C133.699 63.8156 133.681 63.8201 133.663 63.8292C133.663 63.8292 133.663 63.8337 133.672 63.8201L133.668 63.8156ZM132.453 63.4545C132.612 63.4545 132.761 63.4681 132.911 63.4545C133.038 63.441 133.174 63.4139 133.291 63.3597C133.736 63.1566 133.785 62.4705 133.387 62.1862C133.101 61.983 132.775 62.0372 132.458 62.0282V63.4545H132.453Z" fill="#08713D"/>
<path d="M60.9099 63.8379C61.2225 64.1088 61.3992 64.4654 61.6031 64.8084C61.8024 65.1424 61.9927 65.4855 62.1875 65.824C62.2057 65.8511 62.2193 65.8827 62.2419 65.9233C61.9701 65.9233 61.7073 65.9143 61.449 65.9233C61.3177 65.9278 61.2497 65.8872 61.1863 65.7698C60.9688 65.3681 60.7332 64.9754 60.5067 64.5782C60.4886 64.5511 60.4704 64.524 60.4523 64.4924C60.2983 64.1945 60.0672 64.0591 59.7183 64.1584V65.9098H58.8666V65.8014C58.8666 64.3525 58.8666 62.9081 58.8666 61.4592C58.8666 61.3644 58.8892 61.3328 58.9889 61.3373C59.3967 61.3418 59.809 61.3373 60.2167 61.3373C60.5475 61.3418 60.8691 61.396 61.1681 61.5495C61.6575 61.8022 61.8387 62.2807 61.7979 62.7592C61.7526 63.2782 61.4581 63.6123 60.9779 63.7973C60.9552 63.8063 60.9371 63.8154 60.9099 63.8289V63.8379ZM59.7183 63.4498C59.8814 63.4498 60.0355 63.4633 60.185 63.4498C60.3073 63.4362 60.4342 63.4091 60.5474 63.3595C60.783 63.2602 60.8963 63.0661 60.9144 62.8224C60.9371 62.5606 60.8691 62.3394 60.6426 62.1769C60.3617 61.9783 60.04 62.0324 59.7229 62.0234V63.4498H59.7183Z" fill="#08713D"/>
<path d="M28.9281 65.919C29.0278 65.6572 29.1274 65.4044 29.2226 65.1561C29.7074 63.9058 30.1922 62.651 30.6769 61.4007C30.7041 61.3375 30.7313 61.3149 30.7993 61.3149C30.9533 61.3195 31.1028 61.3195 31.2569 61.3149C31.3293 61.3149 31.3611 61.3375 31.3882 61.4052C31.9274 62.7593 32.4711 64.118 33.0147 65.4721C33.0736 65.6165 33.1325 65.7655 33.1914 65.919C32.9015 65.919 32.6296 65.919 32.3578 65.919C32.3306 65.919 32.2898 65.8829 32.2808 65.8513C32.1494 65.5263 32.0225 65.1968 31.8957 64.8673C31.8685 64.7996 31.8368 64.777 31.7643 64.777C31.284 64.777 30.8038 64.777 30.3235 64.777C30.2465 64.777 30.2103 64.795 30.1831 64.8718C30.0653 65.1923 29.943 65.5127 29.8252 65.8332C29.8025 65.9009 29.7708 65.928 29.6983 65.928C29.4491 65.9235 29.1999 65.928 28.9281 65.928V65.919ZM31.0439 62.5021C30.8536 63.0302 30.6679 63.5538 30.4776 64.0819H31.5966C31.4109 63.5492 31.2297 63.0257 31.0484 62.5021H31.0439Z" fill="#08713D"/>
<path d="M96.7292 65.9188C96.4437 65.9188 96.1719 65.9188 95.9001 65.9188C95.8683 65.9188 95.8276 65.8782 95.814 65.8466C95.6826 65.5216 95.5557 65.1966 95.4334 64.8716C95.4062 64.7994 95.37 64.7768 95.293 64.7768C94.8127 64.7768 94.3325 64.7768 93.8522 64.7768C93.7797 64.7768 93.748 64.7994 93.7208 64.8671C93.603 65.1921 93.4762 65.5126 93.3584 65.8375C93.3357 65.9007 93.3085 65.9278 93.236 65.9233C92.9823 65.9188 92.7286 65.9233 92.4613 65.9233C92.5293 65.7473 92.5927 65.5757 92.6607 65.4087C93.1771 64.0772 93.6936 62.7411 94.2101 61.4096C94.2373 61.3419 94.269 61.3193 94.3415 61.3238C94.4956 61.3283 94.6451 61.3283 94.7991 61.3238C94.8716 61.3238 94.8988 61.3464 94.9214 61.4096C95.3201 62.4116 95.7234 63.4091 96.1221 64.4112C96.3124 64.8851 96.5026 65.3591 96.6929 65.833C96.702 65.8601 96.711 65.8872 96.7292 65.9278V65.9188ZM94.5816 62.5019C94.3914 63.03 94.2011 63.5536 94.0153 64.0817H95.1299C94.9441 63.5536 94.7629 63.03 94.5816 62.5019Z" fill="#08713D"/>
<path d="M46.6158 65.9188C46.3303 65.9188 46.0585 65.9188 45.7866 65.9188C45.7549 65.9188 45.7142 65.8782 45.7006 65.8466C45.5692 65.5216 45.4423 65.1966 45.32 64.8717C45.2928 64.8039 45.2611 64.7723 45.1841 64.7723C44.7038 64.7723 44.2236 64.7723 43.7433 64.7723C43.6663 64.7723 43.6346 64.7994 43.6074 64.8717C43.4896 65.1921 43.3673 65.5126 43.2495 65.8331C43.2223 65.9008 43.1906 65.9234 43.1181 65.9234C42.8689 65.9234 42.6197 65.9234 42.3524 65.9234C42.4068 65.7834 42.4521 65.6525 42.5019 65.5216C43.032 64.1495 43.5666 62.7818 44.0967 61.4096C44.1239 61.3419 44.1511 61.3193 44.2281 61.3193C44.3821 61.3238 44.5317 61.3238 44.6857 61.3193C44.7537 61.3193 44.7854 61.3374 44.8126 61.4006C45.1705 62.3033 45.5329 63.2016 45.8954 64.1043C46.1264 64.6821 46.3575 65.2553 46.5886 65.8331C46.5976 65.8557 46.6067 65.8827 46.6203 65.9188H46.6158ZM44.4682 62.5019C44.2779 63.03 44.0922 63.5491 43.9019 64.0772H45.0164C44.8307 63.5491 44.6495 63.0255 44.4682 62.5019Z" fill="#08713D"/>
<path d="M22.9658 65.9143H22.114C22.114 65.8737 22.114 65.8376 22.114 65.8015C22.114 64.3526 22.114 62.9082 22.114 61.4593C22.114 61.36 22.1412 61.3329 22.2363 61.3374C22.6803 61.3464 23.1289 61.3329 23.5729 61.36C24.1166 61.3961 24.5832 61.5902 24.846 62.1047C25.3217 63.0346 24.8324 64.0637 23.8085 64.2713C23.5366 64.3255 23.2512 64.3345 22.9612 64.3616V65.9053L22.9658 65.9143ZM22.9658 63.671C23.1379 63.662 23.2965 63.662 23.4506 63.6439C23.745 63.6123 23.9806 63.4769 24.0713 63.188C24.1709 62.8675 24.1664 62.5471 23.9217 62.2808C23.659 61.9919 23.3056 62.037 22.9658 62.028V63.6755V63.671Z" fill="#08713D"/>
<path d="M65.5357 65.9189H62.9895C62.9895 65.8827 62.9895 65.8466 62.9895 65.8105C62.9895 64.3616 62.9895 62.9127 62.9895 61.4593C62.9895 61.369 63.0076 61.3374 63.1028 61.3374C63.873 61.3374 64.6432 61.3374 65.4179 61.3374H65.5403C65.4632 61.5721 65.3907 61.7933 65.3183 62.019H63.8458V63.2332H65.3001V63.9193H63.8458V65.2282H65.5403V65.9098L65.5357 65.9189Z" fill="#08713D"/>
<path d="M25.9106 65.9143V65.8105C25.9106 64.3616 25.9106 62.9127 25.9106 61.4593C25.9106 61.369 25.9288 61.3374 26.0239 61.3374C26.7941 61.3374 27.5643 61.3374 28.3391 61.3374H28.4614C28.3844 61.5721 28.3119 61.7933 28.2394 62.019H26.7669V63.2332H28.2213V63.9193H26.7669V65.2282H28.4614V65.9098H25.9152L25.9106 65.9143Z" fill="#08713D"/>
<path d="M121.408 63.2377V63.9283H119.949V65.2373H121.643V65.9143H119.097V65.806C119.097 64.3571 119.097 62.9082 119.097 61.4548C119.097 61.36 119.124 61.3374 119.215 61.3374C119.985 61.3374 120.755 61.3374 121.53 61.3374C121.562 61.3374 121.598 61.3374 121.648 61.3374C121.598 61.4954 121.553 61.6398 121.507 61.7797C121.43 62.019 121.426 62.019 121.176 62.019C120.81 62.019 120.438 62.019 120.071 62.019H119.953V63.2332H121.412L121.408 63.2377Z" fill="#08713D"/>
<path d="M40.6262 61.342C40.5537 61.5677 40.4903 61.7708 40.4178 61.974C40.4087 61.9965 40.3589 62.0191 40.3272 62.0191C39.9013 62.0191 39.4754 62.0191 39.0495 62.0191C39.0133 62.0191 38.977 62.0191 38.9317 62.0191V63.2333H40.3861V63.9239H38.9317V65.2329H40.6262V65.9099H38.08C38.08 65.8738 38.08 65.8377 38.08 65.8016C38.08 64.3527 38.08 62.9038 38.08 61.4504C38.08 61.3556 38.1071 61.333 38.1978 61.333C38.968 61.333 39.7382 61.333 40.5129 61.333H40.6307L40.6262 61.342Z" fill="#08713D"/>
<path d="M37.1376 62.2762C36.8975 62.1994 36.6709 62.1137 36.4353 62.0595C36.1408 61.9873 35.8373 61.9828 35.5428 62.055C35.0535 62.1723 34.7046 62.4657 34.5325 62.9306C34.3059 63.5445 34.3286 64.1494 34.7046 64.7045C34.9493 65.0656 35.3163 65.2417 35.7512 65.2823C36.2179 65.3274 36.6483 65.2101 37.056 64.9709C37.1331 65.192 37.2101 65.4042 37.2916 65.6479C37.1013 65.7201 36.9201 65.8104 36.7298 65.8646C36.1137 66.0496 35.4884 66.0542 34.8768 65.842C34.2788 65.6344 33.8619 65.2281 33.6581 64.6323C33.3907 63.856 33.427 63.0931 33.8619 62.3845C34.2289 61.7842 34.7862 61.4547 35.4748 61.3463C36.0049 61.2606 36.526 61.3192 37.0334 61.4862C37.1149 61.5133 37.1421 61.5494 37.1376 61.6352C37.1331 61.8519 37.1376 62.073 37.1376 62.2807V62.2762Z" fill="#08713D"/>
<path d="M69.9486 62.2806C69.7356 62.2084 69.5363 62.1272 69.3324 62.073C69.0107 61.9918 68.6845 61.9737 68.3583 62.0504C67.8826 62.1588 67.5428 62.4386 67.3616 62.8855C67.1396 63.4362 67.1396 63.9868 67.4069 64.524C67.6425 64.9979 68.0502 65.2326 68.5758 65.2778C69.0379 65.3184 69.4593 65.201 69.867 64.9663C69.944 65.1875 70.0211 65.4042 70.0981 65.6253C69.867 65.7562 69.6314 65.8465 69.3822 65.9052C68.8793 66.0225 68.3764 66.0271 67.8781 65.8962C67.1532 65.7021 66.6638 65.2507 66.4418 64.5375C66.2289 63.8469 66.2516 63.1608 66.6004 62.5154C66.9538 61.8473 67.5292 61.4727 68.2677 61.3463C68.8068 61.2515 69.3369 61.3102 69.8534 61.4862C69.9304 61.5133 69.9576 61.5494 69.9531 61.6307C69.944 61.8518 69.9531 62.073 69.9531 62.2852L69.9486 62.2806Z" fill="#08713D"/>
<path d="M84.8726 64.9663C84.9496 65.192 85.0266 65.4087 85.1036 65.6298C84.8454 65.7743 84.5781 65.8736 84.2972 65.9278C83.7943 66.0271 83.2868 66.0271 82.7975 65.8736C82.136 65.6705 81.683 65.2417 81.4655 64.5872C81.2344 63.883 81.2526 63.1834 81.606 62.5154C81.9593 61.8473 82.5347 61.4727 83.2732 61.3463C83.8124 61.2515 84.3425 61.3102 84.859 61.4862C84.936 61.5133 84.9586 61.5494 84.9586 61.6307C84.9541 61.8473 84.9586 62.0685 84.9586 62.2987C84.9088 62.2761 84.868 62.2626 84.8272 62.2445C84.3878 62.0459 83.9302 61.9557 83.4454 62.0414C82.8655 62.1452 82.4849 62.4883 82.3127 63.0435C82.1315 63.6257 82.1723 64.1945 82.5257 64.709C82.7703 65.0656 83.1328 65.2372 83.5632 65.2778C84.0299 65.3229 84.4603 65.2056 84.8726 64.9663Z" fill="#08713D"/>
<path d="M118.073 64.9664C118.155 65.1921 118.227 65.4087 118.304 65.6299C118.046 65.7744 117.779 65.8737 117.498 65.9278C116.995 66.0271 116.487 66.0226 115.998 65.8737C115.337 65.6705 114.879 65.2417 114.666 64.5827C114.412 63.7973 114.458 63.0345 114.915 62.3304C115.282 61.7616 115.826 61.4457 116.496 61.3419C117.027 61.2561 117.548 61.3103 118.055 61.4818C118.132 61.5089 118.168 61.5405 118.164 61.6307C118.155 61.8474 118.164 62.0686 118.164 62.2988C118.114 62.2762 118.073 62.2581 118.032 62.2401C117.602 62.046 117.149 61.9557 116.682 62.0325C116.052 62.1363 115.663 62.5109 115.5 63.1158C115.368 63.6032 115.395 64.0817 115.631 64.5376C115.871 64.998 116.27 65.2327 116.786 65.2778C117.249 65.3185 117.674 65.2056 118.087 64.9664H118.073Z" fill="#08713D"/>
<path d="M100.136 61.3512C100.086 61.5137 100.037 61.6672 99.9867 61.8161C99.9414 61.9545 99.8448 62.0237 99.6968 62.0237C99.3615 62.0237 99.0262 62.0237 98.6819 62.0237V65.9146H97.8437V62.0237H96.5117V61.3467H100.136V61.3512Z" fill="#08713D"/>
<path d="M127.42 61.3463H131.044C130.994 61.5088 130.945 61.6623 130.895 61.8112C130.85 61.9497 130.753 62.0189 130.605 62.0189C130.27 62.0189 129.934 62.0189 129.59 62.0189V65.9097H128.752V62.0189H127.415V61.3418L127.42 61.3463Z" fill="#08713D"/>
<path d="M90.3183 65.9187H87.8446C87.8446 65.8826 87.8446 65.8465 87.8446 65.8104C87.8446 64.3615 87.8446 62.9126 87.8446 61.4637C87.8446 61.3643 87.8718 61.3373 87.9715 61.3418C88.2071 61.3508 88.4426 61.3418 88.6918 61.3418V65.2326H90.3229V65.9142L90.3183 65.9187Z" fill="#08713D"/>
<path d="M86.7345 65.9143H85.9009C85.9009 65.8782 85.8964 65.8421 85.8964 65.8105C85.8964 64.3616 85.8964 62.9082 85.8964 61.4593C85.8964 61.36 85.9235 61.3329 86.0232 61.3374C86.2588 61.3419 86.4944 61.3374 86.7391 61.3374V65.9098L86.7345 65.9143Z" fill="#08713D"/>
<path d="M91.8316 61.3464V65.9098H90.9934C90.9934 65.8782 90.9934 65.8421 90.9934 65.806C90.9934 64.3571 90.9934 62.9037 90.9934 61.4547C90.9934 61.36 91.0206 61.3329 91.1112 61.3374C91.3196 61.3419 91.5235 61.3374 91.7319 61.3374C91.7636 61.3374 91.7999 61.3374 91.8361 61.3419L91.8316 61.3464Z" fill="#08713D"/>
<path d="M101.536 61.3418V65.9098H100.698C100.698 65.8782 100.698 65.842 100.698 65.8059C100.698 64.357 100.698 62.9036 100.698 61.4547C100.698 61.3644 100.721 61.3328 100.816 61.3373C101.056 61.3418 101.296 61.3373 101.541 61.3373L101.536 61.3418Z" fill="#08713D"/>
</g>
<defs>
<clipPath id="clip0_892_36">
<rect width="146" height="66" fill="white"/>
</clipPath>
</defs>
</svg>
