<svg width="70" height="70" viewBox="0 0 70 70" fill="none" xmlns="http://www.w3.org/2000/svg">
<path fill-rule="evenodd" clip-rule="evenodd" d="M64.7271 23.3142C67.9475 25.9737 70 29.9972 70 34.5C70 39.472 67.4975 43.8596 63.6833 46.4718C63.8908 47.4484 64 48.4615 64 49.5C64 57.5081 57.5081 64 49.5 64C48.7731 64 48.0588 63.9465 47.3606 63.8433C44.7362 67.5673 40.4022 70 35.5 70C30.528 70 26.1404 67.4975 23.5282 63.6833C22.5516 63.8908 21.5385 64 20.5 64C12.4919 64 6 57.5081 6 49.5C6 48.7731 6.05348 48.0588 6.15672 47.3606C2.43269 44.7362 0 40.4022 0 35.5C0 30.528 2.50251 26.1404 6.31669 23.5282C6.10918 22.5516 6 21.5385 6 20.5C6 12.4919 12.4919 6 20.5 6C21.5385 6 22.5515 6.10918 23.5282 6.31669C26.1404 2.50251 30.528 0 35.5 0C40.472 0 44.8596 2.50251 47.4718 6.31669C48.4485 6.10918 49.4615 6 50.5 6C58.5081 6 65 12.4919 65 20.5C65 21.4629 64.9062 22.4038 64.7271 23.3142ZM53.6213 26.1213C54.7929 24.9497 54.7929 23.0503 53.6213 21.8787C52.4497 20.7071 50.5503 20.7071 49.3787 21.8787L29 42.2574L21.1213 34.3787C19.9497 33.2071 18.0503 33.2071 16.8787 34.3787C15.7071 35.5503 15.7071 37.4497 16.8787 38.6213L26.8787 48.6213C28.0503 49.7929 29.9497 49.7929 31.1213 48.6213L53.6213 26.1213Z" fill="#4ECF16"/>
</svg>
