<svg width="54" height="75" viewBox="0 0 54 75" fill="none" xmlns="http://www.w3.org/2000/svg">
<path fill-rule="evenodd" clip-rule="evenodd" d="M15 15.5C15 12.4381 18.3674 6 26.5 6C34.7702 6 38 11.5829 38 15.5V23.335C34.6402 21.8343 30.9175 21 27 21C22.6895 21 18.6149 22.0101 15 23.8066V15.5ZM9 27.875V15.5C9 9.56188 14.6326 0 26.5 0C38.2298 0 44 8.41708 44 15.5V27.0227C50.1009 31.973 54 39.5311 54 48C54 62.9117 41.9117 75 27 75C12.0883 75 0 62.9117 0 48C0 40.0035 3.47626 32.8189 9 27.875ZM30 53.1973C31.7934 52.1599 33 50.2208 33 48C33 44.6863 30.3137 42 27 42C23.6863 42 21 44.6863 21 48C21 50.2208 22.2066 52.1599 24 53.1973V58C24 59.6569 25.3431 61 27 61C28.6569 61 30 59.6569 30 58V53.1973Z" fill="#002473"/>
</svg>
