<svg width="62" height="59" viewBox="0 0 62 59" fill="none" xmlns="http://www.w3.org/2000/svg">
<path fill-rule="evenodd" clip-rule="evenodd" d="M42.5839 23.4061C42.5839 33.7476 34.1103 42.131 23.6577 42.131C13.2051 42.131 4.73154 33.7476 4.73154 23.4061C4.73154 13.0646 13.2051 4.68122 23.6577 4.68122C34.1103 4.68122 42.5839 13.0646 42.5839 23.4061ZM39.8891 40.4344C35.6528 44.3885 29.9413 46.8122 23.6577 46.8122C10.5919 46.8122 0 36.3329 0 23.4061C0 10.4793 10.5919 0 23.6577 0C36.7235 0 47.3154 10.4793 47.3154 23.4061C47.3154 28.4267 45.7177 33.0781 42.9978 36.8898L62 55.6899L58.6543 59L39.8891 40.4344Z" fill="black"/>
</svg>
