<svg width="42" height="42" viewBox="0 0 42 42" fill="none" xmlns="http://www.w3.org/2000/svg">
<path fill-rule="evenodd" clip-rule="evenodd" d="M21 42C32.598 42 42 32.598 42 21C42 9.40202 32.598 0 21 0C9.40202 0 0 9.40202 0 21C0 32.598 9.40202 42 21 42ZM19.9393 10.9393L10.3934 20.4853C9.80761 21.0711 9.80761 22.0208 10.3934 22.6066C10.9792 23.1924 11.9289 23.1924 12.5147 22.6066L19.5 15.6213V31C19.5 31.8284 20.1716 32.5 21 32.5C21.8284 32.5 22.5 31.8284 22.5 31V15.6213L29.4853 22.6066C30.0711 23.1924 31.0208 23.1924 31.6066 22.6066C32.1924 22.0208 32.1924 21.0711 31.6066 20.4853L22.0607 10.9393C21.4749 10.3536 20.5251 10.3536 19.9393 10.9393Z" fill="black"/>
</svg>
